<svg xmlns="http://www.w3.org/2000/svg" xml:space="preserve" width="256" height="256" viewBox="0 0 67.733 67.733">
  <path d="M95.793 170.497c-8.19-4.02-15.114-7.578-15.387-7.907-.461-.557-.496-1.894-.496-19.127v-18.529l.78-.719c.429-.395 2.056-1.24 3.616-1.876 1.56-.637 3.403-1.411 4.095-1.72.693-.31 1.482-.605 1.755-.657.272-.05.755-.23 1.073-.396.318-.167 3.804-1.618 7.747-3.226 3.943-1.608 7.935-3.256 8.871-3.662 2.543-1.103 4.909-1.171 7.09-.204.937.415 2.277.978 2.979 1.251.702.273 3.254 1.333 5.672 2.354a837.353 837.353 0 0 0 5.956 2.495c.858.351 3.22 1.329 5.248 2.173 7.056 2.938 8.487 3.528 8.569 3.528.044 0 .081 8.665.081 19.257v19.257l-.638.576c-.351.317-6.892 3.633-14.536 7.37-12.98 6.343-14.02 6.8-15.741 6.931l-1.844.14zm32.262-3.331 12.267-5.916v-33.336l-1.665.81a50.263 50.263 0 0 1-3.19 1.397c-1.522.586-5.615 2.346-7.766 3.338-1.035.478-12.185 5.224-13.685 5.826l-.638.256v34.746l1.205-.603c.663-.331 6.726-3.264 13.472-6.518zm-5.693 1.927c-.105-.103-.192-3.243-.192-6.977 0-6.36-.031-6.776-.496-6.583-1.406.584-1.626.38-1.714-1.59l-.084-1.859 4.155-1.975c2.286-1.086 4.366-1.935 4.622-1.888.367.069.484.484.55 1.949l.083 1.86-1.43.71-1.431.711V167.6l-1.348.663c-1.692.834-2.47 1.071-2.715.831zm7.488-6.506c-.48-.47-.873-1.009-.873-1.197 0-.188.625-1.022 1.388-1.854l1.388-1.51.715.65c.492.448.898.595 1.3.47.735-.229 1.733-1.578 1.733-2.344 0-.52-.166-.582-1.56-.582-1.389 0-1.68-.109-2.68-.992-1.427-1.263-1.696-2.62-.991-4.995.665-2.24 1.528-3.49 3.13-4.528 1.075-.698 1.637-.873 2.787-.866 1.573.01 2.243.353 2.552 1.31.21.649.047.963-1.35 2.576-.758.876-.857.911-1.694.602-.77-.285-.961-.258-1.43.201-.385.378-.488.737-.356 1.25.172.672.293.72 1.86.72 1.514 0 1.775.09 2.69.935.959.886 1.012 1.031 1.012 2.736 0 .99-.15 2.226-.334 2.745-.56 1.586-2.037 3.391-3.657 4.471-1.315.877-1.774 1.029-3.148 1.042-1.43.013-1.707-.08-2.482-.84zm-19.66-5.874-.074-17.006-2.804-1.161c-4.28-1.772-4.735-1.963-6.414-2.68a418.45 418.45 0 0 0-5.53-2.271c-2.184-.882-4.099-1.697-4.255-1.81-.156-.114-.666-.342-1.134-.507-.468-.165-2.237-.87-3.932-1.568a195.526 195.526 0 0 0-3.12-1.269c-.021 0-.005 7.318.036 16.26.07 15.146.11 16.273.568 16.42.581.188 12.295 5.8 20.345 9.746 3.12 1.53 5.833 2.798 6.03 2.817.283.028.341-3.442.283-16.97zm-10.072 7.554c-.511-.202-.638-.47-.638-1.355 0-1.143.366-1.595 1.183-1.463.427.068.458-.237.314-3.103-.148-2.938-.114-3.242.445-4.01.493-.679.535-.888.228-1.137-.285-.232-.51-.155-.932.316-1.385 1.548-1.37 1.468-.656 3.521.567 1.632.608 1.978.278 2.367-.625.738-1.786.429-2.278-.608-.234-.493-.508-.9-.61-.903-.102-.003-.45.435-.774.973-.678 1.125-1.207 1.405-1.919 1.015-.392-.215-.566-.145-.804.322-.541 1.063-1.248.885-2.83-.715-1.794-1.814-1.957-2.446-1.69-6.563l.193-3-.904-.905c-1.165-1.168-1.141-2.465.055-3.024.775-.362.784-.394.6-2.224-.102-1.022-.31-2.094-.463-2.383-.347-.658.214-2.544 1.02-3.433.405-.446.883-.625 1.67-.625 1.615 0 2.202.401 2.202 1.504 0 1.109-.497 1.59-1.4 1.36-.62-.16-.651-.11-.485.775.098.52.26 1.664.362 2.542.162 1.407.258 1.597.81 1.597.343 0 .86.254 1.146.564.515.558.527.547 1.178-1.02.836-2.011 1.386-2.6 2.433-2.6.555 0 1.025-.233 1.395-.694.747-.929 1.423-.875 2.524.203 1.45 1.42 2.241 3.375 2.244 5.545.001 1.022-.124 1.936-.28 2.03-.156.094-.284.727-.284 1.405 0 1.018.172 1.42.993 2.309 1.277 1.384 1.32 2.381.133 3.035-.852.47-.858.49-.73 2.423.07 1.072.215 2.291.322 2.708.264 1.03 0 1.908-.84 2.795-.74.782-1.946.953-3.21.456zm-6.189-5.916c-.21-.534.337-1.777 1.305-2.975 1.176-1.455 1.108-2.857-.15-3.083-.61-.109-1.881-2.335-2.434-4.264l-.318-1.106-.507.613c-.489.59-.485.655.1 1.8.53 1.041.6 1.604.55 4.521-.057 3.258-.041 3.35.69 4.097.841.86.972.928.764.397zm6.532-7.419c.377.306.437.244.437-.456 0-.447-.143-.952-.317-1.123-.234-.23-.226-.685.032-1.738.362-1.478.234-2.87-.323-3.528-.261-.308-.547-.139-1.521.9-.66.703-1.356 1.8-1.548 2.436-.192.637-.464 1.375-.605 1.64-.357.673-.336.718.382.818.397.055.788.421 1.035.97l.396.88.797-.577c.66-.478.873-.516 1.235-.222zm14.11-15.575a445.36 445.36 0 0 0 3.77-1.649c.624-.28 2.985-1.275 5.247-2.211 3.937-1.63 7.516-3.153 9.644-4.103.546-.244 1.817-.786 2.825-1.205 1.738-.722 1.797-.776 1.135-1.05-13.571-5.625-21.01-8.728-21.687-9.047-1.436-.676-3.028-1.262-3.43-1.262-.351 0-4.8 1.75-6.78 2.667-.468.217-2.447 1.03-4.397 1.809a1734.9 1734.9 0 0 0-7.658 3.082c-2.261.918-4.75 1.915-5.53 2.215-.78.301-1.513.637-1.63.747-.116.11.905.686 2.27 1.28 1.364.595 3.373 1.478 4.465 1.963 6.111 2.715 10.407 4.597 11.912 5.217.936.386 2.66 1.144 3.83 1.684s2.408.988 2.752.993c.345.005 1.813-.503 3.262-1.13z" style="fill:currentColor;stroke-width:.280688" transform="translate(-77.908 -111.262)"/>
</svg>